<svg xmlns="http://www.w3.org/2000/svg" xmlns:svg="http://www.w3.org/2000/svg" id="svg4142" width="28" height="28" version="1.1" viewBox="0 0 28 28"><metadata id="metadata4147"/><g id="layer1" transform="translate(0,-1024.3622)"><path style="opacity:1;fill:#171a1f;fill-opacity:1;fill-rule:evenodd;stroke:none;stroke-width:2.74499989;stroke-linecap:butt;stroke-linejoin:miter;stroke-miterlimit:4;stroke-dasharray:none;stroke-dashoffset:478.43673706;stroke-opacity:1" id="rect4741" d="m 0,1020.3622 v 32 h 28 v -32 z"/><rect style="opacity:1;fill:#fff;fill-opacity:.07000002;fill-rule:evenodd;stroke:none;stroke-width:2.74499989;stroke-linecap:butt;stroke-linejoin:miter;stroke-miterlimit:4;stroke-dasharray:none;stroke-dashoffset:478.43673706;stroke-opacity:1" id="rect4142" width="28" height="1" x="0" y="1020.362"/><path id="path4094" d="m 14.000071,1046.3622 c 4.418203,0 7.999929,-3.5817 7.999929,-8 0,-4.4183 -3.581726,-8 -7.999929,-8 -4.418335,0 -8.000071,3.5817 -8.000071,8 0,4.4183 3.581736,8 8.000071,8" style="fill:#090a0c;fill-opacity:1;fill-rule:evenodd;stroke:none;stroke-width:.01446429"/><path id="path4096" d="m 13.922677,1044.9027 c 3.589781,0 6.499933,-2.9102 6.499933,-6.5 0,-3.5899 -2.910152,-6.5001 -6.499933,-6.5001 -3.589913,0 -6.500067,2.9102 -6.500067,6.5001 0,3.5898 2.910154,6.5 6.500067,6.5" style="fill:#f24732;fill-opacity:1;fill-rule:evenodd;stroke:none;stroke-width:.01265625"/><path id="path4098" d="m 11.07538,1034.9316 c -0.149605,0 -0.299437,0.058 -0.412958,0.1718 l -0.01026,0.01 c -0.227058,0.227 -0.227058,0.5989 0,0.8259 l 2.513654,2.5137 -2.513653,2.5162 c -0.226992,0.227 -0.226992,0.5963 0,0.8233 l 0.01026,0.013 c 0.226974,0.227 0.598873,0.227 0.825914,0 l 2.513653,-2.5137 2.513653,2.5137 c 0.226992,0.227 0.598873,0.227 0.825915,0 l 0.01026,-0.013 c 0.226975,-0.2269 0.226975,-0.5963 0,-0.8233 l -2.513653,-2.5162 2.513653,-2.5137 c 0.226975,-0.227 0.227041,-0.5989 0,-0.8259 l -0.01026,-0.01 c -0.227108,-0.2269 -0.598924,-0.2269 -0.825915,0 l -2.513653,2.5137 -2.513653,-2.5137 c -0.113521,-0.1135 -0.263353,-0.1718 -0.412957,-0.1718 z" style="fill:#231d2b;fill-opacity:1;fill-rule:evenodd;stroke:none;stroke-width:.01351731"/></g></svg>