<svg xmlns="http://www.w3.org/2000/svg" xmlns:svg="http://www.w3.org/2000/svg" id="svg4142" width="28" height="28" version="1.1" viewBox="0 0 28 28"><metadata id="metadata4147"/><g id="layer1" transform="translate(0,-1024.3622)"><rect style="opacity:1;fill:#171a1f;fill-opacity:1;fill-rule:evenodd;stroke:none;stroke-width:2.74499989;stroke-linecap:butt;stroke-linejoin:miter;stroke-miterlimit:4;stroke-dasharray:none;stroke-dashoffset:478.43673706;stroke-opacity:1" id="rect4741" width="28" height="32" x="0" y="1020.362"/><rect style="opacity:1;fill:#fff;fill-opacity:.07000002;fill-rule:evenodd;stroke:none;stroke-width:2.74499989;stroke-linecap:butt;stroke-linejoin:miter;stroke-miterlimit:4;stroke-dasharray:none;stroke-dashoffset:478.43673706;stroke-opacity:1" id="rect4959" width="28" height="1" x="0" y="1020.362"/><path id="path4417" d="m 13.999996,1046.3622 c 4.418278,0 8.000004,-3.5817 8.000004,-8 0,-4.4182 -3.581726,-7.9999 -8.000004,-7.9999 -4.4182606,0 -7.999996,3.5817 -7.999996,7.9999 0,4.4183 3.5817354,8 7.999996,8" style="fill:#090a0c;fill-opacity:1;fill-rule:evenodd;stroke:none;stroke-width:.01446422"/><path id="path4419" d="m 14.007907,1044.9664 c 3.589845,0 6.499967,-2.9102 6.499967,-6.5001 0,-3.5898 -2.910122,-6.4999 -6.499967,-6.4999 -3.589829,0 -6.5000332,2.9101 -6.5000332,6.4999 0,3.5899 2.9102042,6.5001 6.5000332,6.5001" style="fill:#fabd2f;fill-opacity:1;fill-rule:evenodd;stroke:none;stroke-width:.01265625"/><path id="path4421" d="m 9.6644647,1037.9707 h 8.2946993 c 0.321047,0 0.583672,0.2626 0.583672,0.5837 v 0.015 c 0,0.3211 -0.262625,0.5836 -0.583672,0.5836 H 9.6644647 c -0.3210643,0 -0.583673,-0.2625 -0.583673,-0.5836 v -0.015 c 0,-0.3211 0.2626087,-0.5837 0.583673,-0.5837" style="fill:#090a0c;fill-opacity:1;fill-rule:evenodd;stroke:none;stroke-width:.128447"/></g></svg>