<svg xmlns="http://www.w3.org/2000/svg" xmlns:svg="http://www.w3.org/2000/svg" id="svg4142" width="28" height="28" version="1.1" viewBox="0 0 28 28"><metadata id="metadata4147"/><g id="layer1" transform="translate(0,-1024.3622)"><rect id="rect4741" width="28" height="28" x="0" y="1024.362" style="opacity:1;fill:#171a1f;fill-opacity:1;fill-rule:evenodd;stroke:none;stroke-width:2.56771088;stroke-linecap:butt;stroke-linejoin:miter;stroke-miterlimit:4;stroke-dasharray:none;stroke-dashoffset:478.43673706;stroke-opacity:1"/><circle id="path2994" cx="1036.362" cy="13" r="12" transform="rotate(90)" style="fill:#686868;fill-opacity:.1;stroke:none;stroke-width:.5;stroke-linejoin:miter;stroke-miterlimit:4;stroke-dasharray:none;stroke-opacity:1"/><rect id="rect4959" width="28" height="1" x="0" y="1020.362" style="opacity:1;fill:#fff;fill-opacity:.07000002;fill-rule:evenodd;stroke:none;stroke-width:2.74499989;stroke-linecap:butt;stroke-linejoin:miter;stroke-miterlimit:4;stroke-dasharray:none;stroke-dashoffset:478.43673706;stroke-opacity:1"/><path style="fill:#090a0c;fill-opacity:1;fill-rule:evenodd;stroke:none;stroke-width:.01446422" id="path4417" d="m 13.999998,1046.3622 c 4.418278,0 8.000004,-3.5817 8.000004,-8 0,-4.4182 -3.581726,-7.9999 -8.000004,-7.9999 -4.418262,0 -7.999998,3.5817 -7.999998,7.9999 0,4.4183 3.581736,8 7.999998,8"/><path style="fill:#fabd2f;fill-opacity:1;fill-rule:evenodd;stroke:none;stroke-width:.01265625" id="path4419" d="m 14.007909,1044.9664 c 3.589845,0 6.499967,-2.9102 6.499967,-6.5001 0,-3.5898 -2.910122,-6.4999 -6.499967,-6.4999 -3.589829,0 -6.500035,2.9101 -6.500035,6.4999 0,3.5899 2.910206,6.5001 6.500035,6.5001"/></g></svg>