<svg xmlns="http://www.w3.org/2000/svg" xmlns:svg="http://www.w3.org/2000/svg" id="svg4142" width="28" height="28" version="1.1" viewBox="0 0 28 28"><metadata id="metadata4147"/><g id="layer1" transform="translate(0,-1024.3622)"><rect style="opacity:1;fill:#171a1f;fill-opacity:1;fill-rule:evenodd;stroke:none;stroke-width:2.74499989;stroke-linecap:butt;stroke-linejoin:miter;stroke-miterlimit:4;stroke-dasharray:none;stroke-dashoffset:478.43673706;stroke-opacity:1" id="rect4741" width="28" height="32" x="0" y="1020.362"/><rect style="opacity:1;fill:#fff;fill-opacity:.07000002;fill-rule:evenodd;stroke:none;stroke-width:2.74499989;stroke-linecap:butt;stroke-linejoin:miter;stroke-miterlimit:4;stroke-dasharray:none;stroke-dashoffset:478.43673706;stroke-opacity:1" id="rect4959" width="28" height="1" x="0" y="1020.362"/><path id="path4289" d="m 14.000072,1046.3622 c 4.418203,0 7.999928,-3.5817 7.999928,-8 0,-4.4183 -3.581725,-8 -7.999928,-8 -4.4183344,0 -8.000072,3.5817 -8.000072,8 0,4.4183 3.5817376,8 8.000072,8" style="fill:#090a0c;fill-opacity:1;fill-rule:evenodd;stroke:none;stroke-width:.01446429"/><path id="path4291" d="m 13.910648,1044.9912 c 3.589827,0 6.499964,-2.9102 6.499964,-6.5 0,-3.5899 -2.910137,-6.5 -6.499964,-6.5 -3.589895,0 -6.500036,2.9101 -6.500036,6.5 0,3.5898 2.910141,6.5 6.500036,6.5" style="fill:#b8bb26;fill-opacity:1;fill-rule:evenodd;stroke:none;stroke-width:.01265625"/><path style="fill:#090a0c;fill-opacity:1;fill-rule:evenodd;stroke:none;stroke-width:.01662081" id="path4293" d="m 11.977965,1034.7976 h 4.441063 c 0.591352,0 1.075234,0.4839 1.075234,1.0753 v 4.441 z m 3.861413,7.2502 h -4.458582 c -0.591419,0 -1.075234,-0.4838 -1.075234,-1.0752 v -4.4586 l 5.533816,5.5338"/></g></svg>